<svg width="855" height="478" viewBox="0 0 855 478" fill="none" xmlns="http://www.w3.org/2000/svg">
<path fill-rule="evenodd" clip-rule="evenodd" d="M180.209 63.0657C169.162 58.3075 165.303 46.0242 170.262 34.8191C175.229 23.5935 188.922 13.551 212.737 12.5006C213.289 12.4763 213.756 12.9038 213.78 13.4556C213.805 14.0073 213.377 14.4743 212.825 14.4987C189.516 15.5267 176.66 25.3026 172.091 35.6285C167.512 45.9749 171.127 56.9763 181 61.2289C185.337 63.097 191.517 62.857 196.77 62.0773C199.367 61.6918 201.683 61.1835 203.35 60.7713C204.183 60.5653 204.852 60.3838 205.311 60.2542C205.541 60.1894 205.718 60.1377 205.836 60.1024L205.91 60.0803L205.97 60.0623L206.003 60.0523L206.01 60.05L206.012 60.0495C206.372 59.9375 206.765 60.0382 207.028 60.3098C207.29 60.5815 207.377 60.9777 207.252 61.3343L184.974 125.111C184.81 125.578 185.013 126.094 185.451 126.326C185.686 126.449 185.946 126.587 186.23 126.737C187.708 127.519 189.838 128.649 192.45 130.042C197.673 132.829 204.823 136.672 212.526 140.893C227.915 149.324 245.572 159.296 254.474 165.374C270.63 176.404 276.039 192.328 280.58 207.906C280.895 208.984 281.205 210.06 281.514 211.133L281.521 211.159C285.701 225.661 289.686 239.489 301.204 249.211C307.339 254.388 312.585 256.561 316.641 257.328C317.096 257.414 317.543 257.157 317.716 256.727L348.407 180.339C348.653 179.727 349.415 179.517 349.941 179.916L506.842 299.26C507.564 299.809 507.242 300.957 506.34 301.051L347.387 317.512C346.872 317.565 346.484 318.006 346.478 318.525C346.282 336.601 331.98 351.58 313.698 352.393C304.942 352.782 296.808 349.854 290.509 344.721C290.09 344.379 289.475 344.414 289.109 344.813L288.351 345.643C288.172 345.838 287.922 345.955 287.657 345.967L270.521 346.729C269.97 346.753 269.502 346.326 269.478 345.774C269.453 345.222 269.881 344.755 270.433 344.73L286.741 344.005C287.006 343.994 287.255 343.877 287.434 343.681L287.634 343.463C287.999 343.064 287.979 342.448 287.602 342.061C281.93 336.243 278.291 328.4 277.902 319.645C277.54 311.509 280.043 303.91 284.517 297.822C284.858 297.358 284.759 296.701 284.288 296.371C279.703 293.161 275.148 289.695 271.421 286.303C259.601 275.542 256.728 263.805 254.58 251.695C254.372 250.523 254.17 249.348 253.969 248.17L253.968 248.163L253.968 248.163C252.085 237.168 250.162 225.932 242.327 214.459C233.122 200.978 214.619 190.1 198.244 182.566C190.085 178.812 182.506 175.911 176.967 173.948C174.198 172.967 171.94 172.221 170.376 171.721C170.164 171.653 169.964 171.59 169.778 171.531C169.265 171.369 168.718 171.646 168.54 172.154L161.47 192.392C161.286 192.919 161.571 193.495 162.099 193.676C204.765 208.29 236.265 247.817 238.389 295.598C241.161 357.944 192.867 410.733 130.52 413.505C68.1734 416.277 15.3844 367.982 12.6124 305.636C9.84047 243.289 58.1352 190.5 120.482 187.728C133.643 187.143 146.378 188.834 158.307 192.452C158.823 192.608 159.373 192.332 159.551 191.823L167.286 169.679L182.517 126.077L204.425 63.3625C204.556 62.9876 204.215 62.6174 203.83 62.7128C202.119 63.1359 199.739 63.6586 197.064 64.0556C191.772 64.8411 185.1 65.1725 180.209 63.0657ZM326.984 284.743C325.901 284.86 325.698 286.566 326.685 287.027C337.306 291.995 345.03 302.264 346.297 314.577C346.355 315.138 346.852 315.557 347.413 315.499L501.106 299.582C502.007 299.489 502.329 298.34 501.608 297.792L350.818 183.097C350.293 182.697 349.531 182.907 349.285 183.52L319.513 257.617C319.504 257.642 319.521 257.668 319.547 257.67C321.707 257.763 323.386 257.461 324.511 257.145C325.074 256.987 325.499 256.825 325.775 256.706C325.914 256.647 326.015 256.599 326.078 256.567L326.114 256.55C326.127 256.543 326.137 256.537 326.144 256.534L326.151 256.53L326.155 256.528C326.519 256.324 326.972 256.367 327.291 256.637C327.61 256.908 327.727 257.35 327.583 257.743L318.648 282.186C318.393 282.882 318.958 283.604 319.695 283.524L427.61 271.791C428.159 271.732 428.644 272.129 428.694 272.679L430.817 296.227C430.866 296.77 430.472 297.252 429.93 297.311C429.374 297.371 428.876 296.964 428.826 296.407L426.887 274.906C426.837 274.349 426.339 273.941 425.783 274.002L326.984 284.743ZM315.584 283.971C315.552 283.974 315.519 283.974 315.487 283.971C313.902 283.819 312.287 283.776 310.65 283.849C310.621 283.85 310.592 283.852 310.562 283.853C309.814 283.888 309.258 283.141 309.538 282.446L318.434 260.304C318.597 259.898 319.005 259.648 319.441 259.667C319.448 259.667 319.454 259.667 319.461 259.668C320.832 259.727 322.038 259.643 323.064 259.491C323.868 259.372 324.573 260.153 324.294 260.916L315.979 283.661C315.917 283.831 315.764 283.951 315.584 283.971ZM285.712 294.926C286.127 295.216 286.693 295.146 287.038 294.774C291.976 289.457 298.594 285.694 306.097 284.354C306.442 284.292 306.734 284.06 306.864 283.735L316.195 260.512C316.432 259.921 316.065 259.262 315.443 259.122C311.161 258.158 305.896 255.787 299.914 250.739C287.911 240.608 283.766 226.201 279.629 211.819L279.624 211.799C279.304 210.687 278.984 209.575 278.66 208.466C274.124 192.904 268.866 177.622 253.346 167.025C244.54 161.013 226.974 151.089 211.565 142.647C203.87 138.43 196.727 134.592 191.508 131.807C188.899 130.414 186.771 129.286 185.295 128.505L184.574 128.124C184.284 127.971 183.925 128.112 183.817 128.422L169.86 168.375C169.673 168.91 169.968 169.493 170.508 169.664C170.659 169.712 170.818 169.763 170.985 169.816C172.567 170.322 174.844 171.075 177.635 172.063C183.215 174.04 190.852 176.963 199.08 180.749C215.481 188.295 234.44 199.361 243.979 213.331C252.072 225.182 254.063 236.837 255.938 247.813C256.14 248.999 256.341 250.176 256.549 251.345C258.677 263.345 261.454 274.524 272.768 284.824C276.492 288.215 281.084 291.698 285.712 294.926ZM311.436 317.446L290.336 340.509C289.955 340.926 289.304 340.946 288.913 340.54C283.641 335.074 280.264 327.738 279.9 319.556C279.108 301.731 292.915 286.639 310.739 285.847C328.564 285.055 343.655 298.862 344.448 316.686C345.24 334.51 331.433 349.602 313.609 350.395C305.427 350.759 297.82 348.046 291.908 343.28C291.469 342.926 291.431 342.276 291.812 341.859L312.912 318.796C313.285 318.388 313.257 317.756 312.849 317.383C312.442 317.01 311.809 317.038 311.436 317.446ZM161.41 195.554C160.893 195.377 160.331 195.653 160.151 196.169L123.48 301.144C123.298 301.666 122.728 301.941 122.207 301.758C121.685 301.576 121.41 301.006 121.592 300.485L158.231 195.602C158.417 195.068 158.124 194.486 157.583 194.323C145.907 190.799 133.446 189.154 120.571 189.726C59.3275 192.449 11.8876 244.304 14.6105 305.547C17.3333 366.79 69.188 414.23 130.431 411.507C191.674 408.784 239.114 356.93 236.391 295.687C234.304 248.736 203.341 209.898 161.41 195.554ZM350.924 119.671C350.414 119.46 350.172 118.875 350.384 118.364C350.595 117.854 351.18 117.612 351.69 117.824L372.995 126.657L397.805 135.274C398.055 135.361 398.33 135.345 398.569 135.229L415.082 127.23C415.579 126.989 416.177 127.197 416.418 127.694C416.659 128.191 416.451 128.789 415.954 129.03L398.695 137.391C398.456 137.506 398.181 137.522 397.931 137.435L374.067 129.147C373.572 128.975 373.029 129.214 372.821 129.695L351.472 179.174C351.254 179.681 350.665 179.915 350.158 179.696C349.651 179.477 349.417 178.889 349.636 178.382L370.917 129.059C371.138 128.546 370.898 127.952 370.382 127.739L350.924 119.671Z" fill="#4ABEEA"/>
<path d="M170.262 34.8191L178.949 38.6635L178.949 38.6636L170.262 34.8191ZM180.209 63.0657L176.451 71.7908L176.451 71.7907L180.209 63.0657ZM212.737 12.5006L212.319 3.00982L212.737 12.5006ZM213.78 13.4556L223.271 13.0368L223.271 13.0373L213.78 13.4556ZM212.825 14.4987L213.244 23.9894L213.244 23.9894L212.825 14.4987ZM172.091 35.6285L180.778 39.4729L180.778 39.4729L172.091 35.6285ZM181 61.2289L177.242 69.9539L177.242 69.9539L181 61.2289ZM196.77 62.0773L198.165 71.4744L196.77 62.0773ZM203.35 60.7713L201.069 51.5491L201.069 51.5491L203.35 60.7713ZM205.311 60.2542L207.89 69.3973L207.89 69.3974L205.311 60.2542ZM205.836 60.1024L208.555 69.2051L208.548 69.2071L208.541 69.2092L205.836 60.1024ZM205.91 60.0803L208.658 69.1743L208.643 69.1787L208.629 69.183L205.91 60.0803ZM205.97 60.0623L208.745 69.1479L208.731 69.1521L208.717 69.1563L205.97 60.0623ZM206.003 60.0523L208.799 69.1314L208.789 69.1346L208.778 69.1379L206.003 60.0523ZM206.01 60.05L203.214 50.9709L203.218 50.9694L206.01 60.05ZM206.012 60.0495L208.83 69.1219L208.817 69.126L208.804 69.13L206.012 60.0495ZM207.028 60.3098L213.861 53.7103L213.862 53.7107L207.028 60.3098ZM207.252 61.3343L198.284 58.2013L198.284 58.2012L207.252 61.3343ZM186.23 126.737L190.672 118.34L190.672 118.34L186.23 126.737ZM192.45 130.042L196.922 121.661L192.45 130.042ZM212.526 140.893L217.091 132.561L217.091 132.561L212.526 140.893ZM254.474 165.374L249.117 173.219L254.474 165.374ZM280.58 207.906L271.46 210.565L271.46 210.564L280.58 207.906ZM281.514 211.133L272.387 213.77L272.385 213.763L281.514 211.133ZM281.521 211.159L290.648 208.522L290.65 208.528L281.521 211.159ZM301.204 249.211L307.332 241.951L307.332 241.951L301.204 249.211ZM348.407 180.339L339.592 176.798L339.592 176.798L348.407 180.339ZM349.941 179.916L355.692 172.355L349.941 179.916ZM506.842 299.26L512.594 291.699L512.594 291.699L506.842 299.26ZM506.34 301.051L505.361 291.601L505.362 291.601L506.34 301.051ZM288.351 345.643L295.36 352.055L295.36 352.055L288.351 345.643ZM271.421 286.303L265.026 293.328L271.421 286.303ZM254.58 251.695L263.934 250.035L263.934 250.035L254.58 251.695ZM253.969 248.17L244.605 249.773L244.604 249.766L244.603 249.759L253.969 248.17ZM253.968 248.163L244.601 249.752L244.503 249.172L244.477 248.585L253.968 248.163ZM253.968 248.163L263.331 246.56L263.432 247.146L263.458 247.741L253.968 248.163ZM242.327 214.459L234.482 219.816L234.482 219.816L242.327 214.459ZM198.244 182.566L194.273 191.196L198.244 182.566ZM176.967 173.948L180.139 164.994L180.139 164.994L176.967 173.948ZM170.376 171.721L167.482 180.77L167.482 180.77L170.376 171.721ZM167.286 169.679L158.318 166.546L167.286 169.679ZM182.517 126.077L173.549 122.944L182.517 126.077ZM197.064 64.0556L195.669 54.6586L197.064 64.0556ZM324.511 257.145L327.081 266.291L327.081 266.291L324.511 257.145ZM325.775 256.706L329.514 265.44L329.514 265.44L325.775 256.706ZM326.078 256.567L330.363 265.046L330.339 265.059L330.314 265.071L326.078 256.567ZM326.114 256.55L330.452 265.001L330.425 265.015L330.398 265.028L326.114 256.55ZM326.144 256.534L321.673 248.152L321.696 248.139L321.72 248.127L326.144 256.534ZM326.151 256.53L330.8 264.815L330.689 264.877L330.576 264.937L326.151 256.53ZM326.155 256.528L321.506 248.243L321.509 248.242L326.155 256.528ZM327.291 256.637L321.149 263.885L321.149 263.885L327.291 256.637ZM327.583 257.743L336.506 261.005L336.506 261.005L327.583 257.743ZM427.61 271.791L426.583 262.347L426.584 262.347L427.61 271.791ZM428.694 272.679L438.156 271.826L428.694 272.679ZM319.461 259.668L319.053 269.159L319.053 269.159L319.461 259.668ZM299.914 250.739L306.042 243.479L306.042 243.479L299.914 250.739ZM279.629 211.819L288.756 209.184L288.759 209.192L279.629 211.819ZM279.624 211.799L270.496 214.434L270.494 214.426L279.624 211.799ZM278.66 208.466L269.54 211.124L269.54 211.124L278.66 208.466ZM253.346 167.025L247.989 174.871L247.989 174.871L253.346 167.025ZM211.565 142.647L207 150.978L207 150.978L211.565 142.647ZM191.508 131.807L187.036 140.188L187.036 140.188L191.508 131.807ZM185.295 128.505L189.734 120.106L189.736 120.107L185.295 128.505ZM170.985 169.816L168.092 178.865L168.091 178.865L170.985 169.816ZM177.635 172.063L174.462 181.018L174.462 181.018L177.635 172.063ZM199.08 180.749L203.051 172.119L199.08 180.749ZM243.979 213.331L251.824 207.974L243.979 213.331ZM255.938 247.813L265.302 246.213L265.302 246.213L255.938 247.813ZM256.549 251.345L247.195 253.004L247.195 253.004L256.549 251.345ZM272.768 284.824L266.372 291.849L266.372 291.849L272.768 284.824ZM311.436 317.446L318.446 323.858L318.445 323.858L311.436 317.446ZM312.912 318.796L305.903 312.383L305.903 312.383L312.912 318.796ZM312.849 317.383L306.437 324.392L306.436 324.392L312.849 317.383ZM123.48 301.144L132.449 304.277L132.449 304.277L123.48 301.144ZM122.207 301.758L125.339 292.79L125.34 292.79L122.207 301.758ZM121.592 300.485L112.624 297.352L112.624 297.352L121.592 300.485ZM350.384 118.364L359.159 122.003L359.159 122.003L350.384 118.364ZM350.924 119.671L354.563 110.895L354.563 110.896L350.924 119.671ZM351.69 117.824L348.052 126.599L348.052 126.599L351.69 117.824ZM372.995 126.657L369.878 135.631L369.614 135.54L369.357 135.433L372.995 126.657ZM415.082 127.23L419.224 135.78L419.224 135.78L415.082 127.23ZM415.954 129.03L420.096 137.58L420.096 137.58L415.954 129.03ZM398.695 137.391L394.553 128.841L394.553 128.841L398.695 137.391ZM397.931 137.435L401.048 128.461L401.048 128.461L397.931 137.435ZM351.472 179.174L360.195 182.937L360.195 182.938L351.472 179.174ZM350.158 179.696L346.395 188.419L346.395 188.419L350.158 179.696ZM349.636 178.382L358.359 182.145L358.359 182.145L349.636 178.382ZM370.917 129.059L362.195 125.295L370.917 129.059ZM370.382 127.739L374.021 118.963L370.382 127.739ZM160.151 196.169L151.183 193.036L160.151 196.169ZM161.41 195.554L164.485 186.566L161.41 195.554ZM291.908 343.28L297.87 335.884L291.908 343.28ZM291.812 341.859L298.821 348.272L291.812 341.859ZM183.817 128.422L174.849 125.289L183.817 128.422ZM374.067 129.147L370.95 138.121L374.067 129.147ZM372.821 129.695L364.098 125.932L372.821 129.695ZM316.195 260.512L307.38 256.97L316.195 260.512ZM315.443 259.122L313.357 268.391L315.443 259.122ZM287.038 294.774L280.077 288.31L287.038 294.774ZM285.712 294.926L280.276 302.718L285.712 294.926ZM306.097 284.354L304.426 275.002L306.097 284.354ZM306.864 283.735L298.049 280.193L306.864 283.735ZM315.979 283.661L324.902 286.923L315.979 283.661ZM323.064 259.491L324.453 268.889L323.064 259.491ZM324.294 260.916L315.372 257.654L324.294 260.916ZM428.826 296.407L438.288 295.553L428.826 296.407ZM430.817 296.227L421.356 297.08L430.817 296.227ZM319.513 257.617L310.698 254.076L319.513 257.617ZM350.818 183.097L356.57 175.535L350.818 183.097ZM349.285 183.52L358.1 187.061L349.285 183.52ZM290.336 340.509L297.345 346.922L290.336 340.509ZM288.913 340.54L295.75 333.944L288.913 340.54ZM501.106 299.582L502.084 309.032L501.106 299.582ZM501.608 297.792L495.857 305.353L501.608 297.792ZM287.634 343.463L294.643 349.876L287.634 343.463ZM287.602 342.061L294.404 335.429L287.602 342.061ZM310.562 283.853L310.117 274.363L310.562 283.853ZM309.538 282.446L300.722 278.904L309.538 282.446ZM184.974 125.111L193.942 128.244L184.974 125.111ZM185.451 126.326L181.014 134.726L185.451 126.326ZM346.297 314.577L336.847 315.55L346.297 314.577ZM347.413 315.499L348.392 324.948L347.413 315.499ZM169.86 168.375L178.829 171.508L169.86 168.375ZM170.508 169.664L173.376 160.608L170.508 169.664ZM158.307 192.452L161.064 183.36L158.307 192.452ZM159.551 191.823L168.519 194.956L159.551 191.823ZM169.778 171.531L172.638 162.472L169.778 171.531ZM168.54 172.154L159.572 169.021L168.54 172.154ZM426.887 274.906L417.425 275.759L426.887 274.906ZM425.783 274.002L424.756 264.557L425.783 274.002ZM204.425 63.3625L195.457 60.2295L204.425 63.3625ZM315.487 283.971L314.582 293.428L315.487 283.971ZM287.434 343.681L280.425 337.269L287.434 343.681ZM158.231 195.602L167.199 198.735L158.231 195.602ZM157.583 194.323L154.838 203.417L157.583 194.323ZM318.648 282.186L327.57 285.448L318.648 282.186ZM319.695 283.524L320.722 292.968L319.695 283.524ZM290.509 344.721L284.508 352.085L290.509 344.721ZM289.109 344.813L296.119 351.226L289.109 344.813ZM162.099 193.676L165.177 184.688L162.099 193.676ZM397.805 135.274L400.922 126.3L397.805 135.274ZM398.569 135.229L394.427 126.68L398.569 135.229ZM318.434 260.304L327.249 263.845L318.434 260.304ZM319.441 259.667L319.024 269.158L319.441 259.667ZM326.685 287.027L330.709 278.422L326.685 287.027ZM326.984 284.743L325.957 275.298L326.984 284.743ZM284.517 297.822L276.862 292.196L284.517 297.822ZM284.288 296.371L289.736 288.589L284.288 296.371ZM347.387 317.512L346.409 308.063L347.387 317.512ZM346.478 318.525L336.979 318.421L346.478 318.525ZM316.641 257.328L318.407 247.994L316.641 257.328ZM317.716 256.727L308.901 253.185L317.716 256.727ZM178.949 38.6636C175.79 45.8014 178.507 51.9887 183.967 54.3407L176.451 71.7907C159.818 64.6263 154.816 46.2471 161.574 30.9747L178.949 38.6636ZM213.156 21.9914C191.739 22.936 182.024 31.7142 178.949 38.6635L161.574 30.9747C168.434 15.4728 186.106 4.16594 212.319 3.00982L213.156 21.9914ZM204.29 13.8744C204.496 18.5641 208.466 22.1982 213.156 21.9914L212.319 3.00982C218.112 2.75431 223.015 7.24349 223.271 13.0368L204.29 13.8744ZM212.407 5.00788C207.717 5.21473 204.083 9.1843 204.289 13.8739L223.271 13.0373C223.526 18.8303 219.037 23.7339 213.244 23.9894L212.407 5.00788ZM163.403 31.7841C169.863 17.1869 186.692 6.14201 212.407 5.00788L213.244 23.9894C192.339 24.9114 183.457 33.4183 180.778 39.4729L163.403 31.7841ZM177.242 69.9539C161.805 63.3045 157.014 46.2216 163.403 31.7841L180.778 39.4729C178.01 45.7283 180.45 50.6481 184.758 52.5038L177.242 69.9539ZM198.165 71.4744C192.729 72.2812 184.211 72.9558 177.242 69.9539L184.758 52.5038C186.463 53.2383 190.305 53.4328 195.375 52.6803L198.165 71.4744ZM205.631 69.9934C203.754 70.4575 201.134 71.0337 198.165 71.4744L195.375 52.6803C197.601 52.35 199.612 51.9095 201.069 51.5491L205.631 69.9934ZM207.89 69.3974C207.343 69.5516 206.574 69.76 205.631 69.9934L201.069 51.5491C201.791 51.3706 202.36 51.2159 202.732 51.111L207.89 69.3974ZM208.541 69.2092C208.383 69.2561 208.164 69.3201 207.89 69.3973L202.732 51.111C202.917 51.0587 203.052 51.0192 203.131 50.9956L208.541 69.2092ZM208.629 69.183L208.555 69.2051L203.118 50.9997L203.192 50.9775L208.629 69.183ZM208.717 69.1563L208.658 69.1743L203.163 50.9862L203.223 50.9682L208.717 69.1563ZM208.778 69.1379L208.745 69.1479L203.195 50.9767L203.227 50.9667L208.778 69.1379ZM208.807 69.129L208.799 69.1314L203.206 50.9732L203.214 50.9709L208.807 69.129ZM208.804 69.13L208.802 69.1305L203.218 50.9694L203.22 50.9689L208.804 69.13ZM200.194 66.9094C202.424 69.218 205.764 70.0741 208.83 69.1219L203.194 50.9771C206.981 49.8008 211.107 50.8583 213.861 53.7103L200.194 66.9094ZM198.284 58.2012C197.225 61.2318 197.964 64.6 200.194 66.9089L213.862 53.7107C216.616 56.5629 217.529 60.7237 216.221 64.4673L198.284 58.2012ZM176.005 121.978L198.284 58.2013L216.221 64.4672L193.942 128.244L176.005 121.978ZM181.788 135.135C181.506 134.985 181.247 134.849 181.014 134.726L189.888 117.925C190.124 118.05 190.386 118.188 190.672 118.34L181.788 135.135ZM187.977 138.424C185.377 137.036 183.257 135.912 181.788 135.135L190.672 118.34C192.158 119.126 194.299 120.261 196.922 121.661L187.977 138.424ZM207.961 149.224C200.297 145.025 193.18 141.2 187.977 138.424L196.922 121.661C202.167 124.459 209.348 128.319 217.091 132.561L207.961 149.224ZM249.117 173.219C240.672 167.453 223.445 157.707 207.961 149.224L217.091 132.561C232.385 140.941 250.473 151.139 259.831 157.528L249.117 173.219ZM271.46 210.564C266.942 195.064 262.254 182.189 249.117 173.219L259.831 157.528C279.005 170.62 285.137 189.592 289.701 205.247L271.46 210.564ZM272.385 213.763C272.076 212.689 271.77 211.627 271.46 210.565L289.701 205.247C290.02 206.342 290.334 207.432 290.642 208.502L272.385 213.763ZM272.395 213.796L272.387 213.77L290.64 208.495L290.648 208.522L272.395 213.796ZM295.077 256.471C280.999 244.589 276.424 227.779 272.393 213.789L290.65 208.528C294.977 223.543 298.372 234.389 307.332 241.951L295.077 256.471ZM314.874 266.663C308.991 265.549 302.28 262.549 295.077 256.47L307.332 241.951C312.398 246.227 316.179 247.572 318.407 247.994L314.874 266.663ZM357.222 183.881L326.531 260.269L308.901 253.185L339.592 176.798L357.222 183.881ZM344.189 187.478C348.656 190.875 355.13 189.088 357.222 183.881L339.592 176.798C342.176 170.366 350.174 168.158 355.692 172.355L344.189 187.478ZM501.091 306.822L344.189 187.478L355.692 172.355L512.594 291.699L501.091 306.822ZM505.362 291.601C497.698 292.395 494.959 302.157 501.091 306.821L512.594 291.699C520.168 297.461 516.785 309.52 507.319 310.5L505.362 291.601ZM346.409 308.063L505.361 291.601L507.319 310.5L348.366 326.961L346.409 308.063ZM313.276 342.902C326.492 342.315 336.837 331.484 336.979 318.421L355.978 318.628C355.727 341.719 337.467 360.845 314.12 361.883L313.276 342.902ZM296.511 337.357C301.072 341.074 306.939 343.184 313.276 342.902L314.12 361.883C302.946 362.38 292.543 358.634 284.508 352.085L296.511 337.357ZM281.341 339.23L282.1 338.401L296.119 351.226L295.36 352.055L281.341 339.23ZM287.235 336.476C284.983 336.576 282.863 337.567 281.342 339.23L295.36 352.055C293.48 354.11 290.861 355.334 288.079 355.457L287.235 336.476ZM270.099 337.238L287.235 336.476L288.079 355.457L270.943 356.219L270.099 337.238ZM278.969 345.352C278.76 340.662 274.789 337.029 270.099 337.238L270.943 356.219C265.15 356.477 260.245 351.989 259.987 346.196L278.969 345.352ZM270.854 354.221C275.544 354.013 279.177 350.042 278.969 345.352L259.987 346.196C259.73 340.403 264.217 335.497 270.011 335.24L270.854 354.221ZM287.163 353.496L270.854 354.221L270.011 335.24L286.319 334.515L287.163 353.496ZM294.643 349.876L294.444 350.094L280.425 337.269L280.625 337.051L294.643 349.876ZM287.393 319.223C287.675 325.56 290.297 331.216 294.404 335.429L280.799 348.692C273.563 341.27 268.908 331.241 268.412 320.067L287.393 319.223ZM292.172 303.448C288.935 307.852 287.131 313.331 287.393 319.223L268.412 320.067C267.95 309.688 271.15 299.968 276.862 292.196L292.172 303.448ZM277.816 279.278C281.126 282.291 285.319 285.497 289.736 288.589L278.839 304.154C274.086 300.826 269.17 297.1 265.026 293.328L277.816 279.278ZM263.934 250.035C265.988 261.617 268.402 270.707 277.816 279.278L265.026 293.328C250.799 280.376 247.467 265.993 245.226 253.354L263.934 250.035ZM263.333 246.567C263.535 247.749 263.731 248.896 263.934 250.035L245.226 253.354C245.012 252.149 244.806 250.946 244.605 249.773L263.333 246.567ZM263.334 246.574L263.335 246.582L244.603 249.759L244.601 249.752L263.334 246.574ZM263.458 247.741L263.458 247.741L244.477 248.585L244.477 248.585L263.458 247.741ZM250.173 209.102C259.304 222.474 261.46 235.626 263.331 246.56L244.604 249.766C242.711 238.71 241.02 229.391 234.482 219.816L250.173 209.102ZM202.215 173.936C218.715 181.527 239.381 193.297 250.173 209.102L234.482 219.816C226.863 208.658 210.523 198.673 194.273 191.196L202.215 173.936ZM180.139 164.994C185.872 167.025 193.73 170.031 202.215 173.936L194.273 191.196C186.44 187.592 179.14 184.797 173.795 182.903L180.139 164.994ZM173.27 162.673C174.917 163.199 177.268 163.976 180.139 164.994L173.795 182.903C171.128 181.958 168.964 181.244 167.482 180.77L173.27 162.673ZM172.638 162.472C172.836 162.534 173.046 162.601 173.27 162.673L167.482 180.77C167.281 180.705 167.093 180.646 166.918 180.59L172.638 162.472ZM152.502 189.259L159.572 169.021L177.509 175.287L170.439 195.525L152.502 189.259ZM228.899 296.02C226.954 252.271 198.116 216.054 159.021 202.663L165.177 184.688C211.413 200.525 245.576 243.363 247.88 295.176L228.899 296.02ZM130.098 404.015C187.203 401.476 231.438 353.125 228.899 296.02L247.88 295.176C250.885 362.764 198.53 419.991 130.942 422.996L130.098 404.015ZM22.103 305.214C24.642 362.319 72.993 406.554 130.098 404.015L130.942 422.996C63.3538 426.001 6.1268 373.646 3.1218 306.058L22.103 305.214ZM120.904 197.219C63.7987 199.758 19.5641 248.109 22.103 305.214L3.1218 306.058C0.116801 238.47 52.4718 181.243 120.06 178.238L120.904 197.219ZM155.55 201.543C144.636 198.233 132.975 196.682 120.904 197.219L120.06 178.238C134.311 177.604 148.12 179.435 161.064 183.36L155.55 201.543ZM176.255 172.812L168.519 194.956L150.582 188.69L158.318 166.546L176.255 172.812ZM191.486 129.21L176.255 172.812L158.318 166.546L173.549 122.944L191.486 129.21ZM213.394 66.4954L191.486 129.21L173.549 122.944L195.457 60.2295L213.394 66.4954ZM195.669 54.6586C197.973 54.3167 200.048 53.8619 201.549 53.4906L206.111 71.9349C204.19 72.4099 201.506 73.0004 198.459 73.4527L195.669 54.6586ZM183.967 54.3407C186.228 55.3146 190.565 55.4162 195.669 54.6586L198.459 73.4527C192.979 74.266 183.972 75.0303 176.451 71.7908L183.967 54.3407ZM336.847 315.55C335.933 306.671 330.363 299.235 322.66 295.633L330.709 278.422C344.249 284.754 354.126 297.856 355.747 313.604L336.847 315.55ZM502.084 309.032L348.392 324.948L346.434 306.049L500.127 290.133L502.084 309.032ZM356.57 175.535L507.359 290.23L495.857 305.353L345.067 190.658L356.57 175.535ZM310.698 254.076L340.47 179.978L358.1 187.061L328.328 261.159L310.698 254.076ZM327.081 266.291C325.092 266.85 322.406 267.301 319.139 267.161L319.955 248.178C321.008 248.224 321.681 248.073 321.941 247.999L327.081 266.291ZM329.514 265.44C328.887 265.708 328.072 266.012 327.081 266.291L321.941 247.999C322.076 247.962 322.11 247.942 322.037 247.973L329.514 265.44ZM330.314 265.071C330.095 265.18 329.827 265.306 329.514 265.44L322.037 247.973C322 247.989 321.936 248.018 321.842 248.064L330.314 265.071ZM330.398 265.028L330.363 265.046L321.794 248.088L321.829 248.071L330.398 265.028ZM330.615 264.916C330.56 264.945 330.505 264.974 330.452 265.001L321.775 248.098C321.749 248.112 321.715 248.129 321.673 248.152L330.615 264.916ZM330.576 264.937L330.569 264.94L321.72 248.127L321.727 248.123L330.576 264.937ZM330.804 264.813L330.8 264.815L321.503 248.245L321.506 248.243L330.804 264.813ZM321.149 263.885C323.858 266.18 327.707 266.549 330.802 264.814L321.509 248.242C325.332 246.098 330.086 246.554 333.433 249.39L321.149 263.885ZM318.661 254.482C317.438 257.827 318.431 261.581 321.149 263.885L333.432 249.389C336.79 252.235 338.017 256.872 336.506 261.005L318.661 254.482ZM309.725 278.924L318.661 254.482L336.506 261.005L327.57 285.448L309.725 278.924ZM428.637 281.236L320.722 292.968L318.668 274.079L426.583 262.347L428.637 281.236ZM419.232 273.533C419.66 278.276 423.902 281.75 428.636 281.236L426.584 262.347C432.416 261.713 437.629 265.982 438.156 271.826L419.232 273.533ZM421.356 297.08L419.232 273.533L438.156 271.826L440.279 295.374L421.356 297.08ZM436.349 274.053L438.288 295.553L419.364 297.26L417.425 275.759L436.349 274.053ZM325.957 275.298L424.756 264.557L426.81 283.446L328.011 294.187L325.957 275.298ZM314.582 293.428C313.436 293.318 312.265 293.287 311.072 293.34L310.228 274.358C312.309 274.266 314.367 274.321 316.392 274.514L314.582 293.428ZM311.072 293.34C311.051 293.341 311.03 293.342 311.008 293.343L310.117 274.363C310.154 274.362 310.191 274.36 310.228 274.358L311.072 293.34ZM300.722 278.904L309.619 256.762L327.249 263.845L318.353 285.988L300.722 278.904ZM319.859 250.176C319.862 250.176 319.866 250.176 319.869 250.177L319.053 269.159C319.043 269.159 319.034 269.158 319.024 269.158L319.859 250.176ZM319.869 250.177C320.611 250.208 321.215 250.161 321.675 250.093L324.453 268.889C322.862 269.124 321.053 269.245 319.053 269.159L319.869 250.177ZM333.217 264.178L324.902 286.923L307.057 280.399L315.372 257.654L333.217 264.178ZM307.768 293.706C302.361 294.672 297.581 297.382 293.999 301.239L280.077 288.31C286.372 281.531 294.826 276.717 304.426 275.002L307.768 293.706ZM325.01 264.054L315.679 287.277L298.049 280.193L307.38 256.97L325.01 264.054ZM306.042 243.479C311.023 247.683 314.934 249.27 317.53 249.854L313.357 268.391C307.387 267.047 300.769 263.892 293.787 257.999L306.042 243.479ZM288.759 209.192C293.033 224.052 296.59 235.502 306.042 243.479L293.787 257.999C279.232 245.715 274.499 228.35 270.499 214.445L288.759 209.192ZM288.751 209.164L288.756 209.184L270.502 214.453L270.496 214.434L288.751 209.164ZM287.781 205.807C288.11 206.936 288.434 208.064 288.753 209.173L270.494 214.426C270.173 213.311 269.858 212.215 269.54 211.124L287.781 205.807ZM258.703 159.18C277.243 171.838 283.223 190.17 287.781 205.807L269.54 211.124C265.026 195.638 260.49 183.406 247.989 174.871L258.703 159.18ZM216.13 134.315C231.443 142.705 249.441 152.856 258.703 159.18L247.989 174.871C239.64 169.17 222.504 159.473 207 150.978L216.13 134.315ZM195.98 123.425C201.221 126.221 208.395 130.078 216.13 134.315L207 150.978C199.344 146.783 192.234 142.962 187.036 140.188L195.98 123.425ZM189.736 120.107C191.221 120.893 193.36 122.027 195.981 123.425L187.036 140.188C184.438 138.802 182.32 137.679 180.853 136.903L189.736 120.107ZM189.014 119.725L189.734 120.106L180.855 136.904L180.134 136.523L189.014 119.725ZM160.892 165.243L174.849 125.289L192.786 131.554L178.829 171.508L160.892 165.243ZM168.091 178.865C167.933 178.814 167.783 178.766 167.64 178.721L173.376 160.608C173.536 160.658 173.704 160.712 173.879 160.768L168.091 178.865ZM174.462 181.018C171.774 180.065 169.59 179.344 168.092 178.865L173.879 160.768C175.543 161.3 177.914 162.084 180.807 163.109L174.462 181.018ZM195.109 189.379C187.207 185.744 179.849 182.926 174.462 181.018L180.807 163.109C186.581 165.154 194.497 168.183 203.051 172.119L195.109 189.379ZM236.134 218.688C228.18 207.041 211.384 196.867 195.109 189.379L203.051 172.119C219.578 179.723 240.699 191.681 251.824 207.974L236.134 218.688ZM246.573 249.413C244.69 238.389 242.932 228.644 236.134 218.688L251.824 207.974C261.212 221.721 263.435 235.286 265.302 246.213L246.573 249.413ZM247.195 253.004C246.981 251.801 246.775 250.593 246.573 249.413L265.302 246.213C265.505 247.404 265.702 248.552 265.903 249.686L247.195 253.004ZM266.372 291.849C252.652 279.358 249.417 265.532 247.195 253.004L265.903 249.686C267.937 261.158 270.256 269.69 279.163 277.799L266.372 291.849ZM280.276 302.718C275.482 299.373 270.522 295.627 266.372 291.849L279.163 277.799C282.463 280.803 286.685 284.022 291.147 287.135L280.276 302.718ZM283.327 334.097L304.427 311.033L318.445 323.858L297.345 346.922L283.327 334.097ZM289.391 319.134C289.648 324.917 292.024 330.081 295.75 333.944L282.075 347.135C275.258 340.067 270.88 330.56 270.41 319.978L289.391 319.134ZM311.161 295.338C298.578 295.897 288.831 306.551 289.391 319.134L270.41 319.978C269.384 296.912 287.251 277.382 310.317 276.356L311.161 295.338ZM334.957 317.108C334.398 304.525 323.744 294.778 311.161 295.338L310.317 276.356C333.383 275.331 352.913 293.198 353.939 316.264L334.957 317.108ZM313.187 340.904C325.77 340.345 335.517 329.691 334.957 317.108L353.939 316.264C354.964 339.33 337.097 358.86 314.031 359.885L313.187 340.904ZM297.87 335.884C302.05 339.253 307.404 341.161 313.187 340.904L314.031 359.885C303.449 360.356 293.59 356.838 285.946 350.676L297.87 335.884ZM319.921 325.208L298.821 348.272L284.803 335.447L305.903 312.383L319.921 325.208ZM319.261 310.374C323.54 314.288 323.835 320.93 319.921 325.209L305.903 312.383C302.734 315.847 302.973 321.224 306.437 324.392L319.261 310.374ZM304.427 311.034C308.341 306.755 314.983 306.459 319.262 310.374L306.436 324.392C309.9 327.561 315.277 327.322 318.446 323.858L304.427 311.034ZM114.512 298.011L151.183 193.036L169.12 199.302L132.449 304.277L114.512 298.011ZM125.34 292.79C120.908 291.241 116.06 293.58 114.512 298.011L132.449 304.277C130.536 309.751 124.548 312.64 119.073 310.727L125.34 292.79ZM130.561 303.617C132.109 299.186 129.772 294.338 125.339 292.79L119.074 310.727C113.599 308.815 110.712 302.826 112.624 297.352L130.561 303.617ZM167.199 198.735L130.561 303.617L112.624 297.352L149.262 192.469L167.199 198.735ZM120.149 180.236C134.109 179.615 147.64 181.398 160.328 185.228L154.838 203.417C144.173 200.199 132.783 198.693 120.993 199.217L120.149 180.236ZM5.11983 305.969C2.16389 239.484 53.6641 183.192 120.149 180.236L120.993 199.217C64.991 201.707 21.6112 249.123 24.1011 305.125L5.11983 305.969ZM130.853 420.998C64.3685 423.954 8.07577 372.454 5.11983 305.969L24.1011 305.125C26.5909 361.127 74.0076 404.506 130.009 402.017L130.853 420.998ZM245.882 295.265C248.838 361.749 197.338 418.042 130.853 420.998L130.009 402.017C186.011 399.527 229.391 352.11 226.901 296.108L245.882 295.265ZM164.485 186.566C209.988 202.132 243.615 244.281 245.882 295.265L226.901 296.108C224.993 253.192 196.695 217.665 158.335 204.543L164.485 186.566ZM359.159 122.003C360.957 117.667 358.9 112.693 354.563 110.895L347.286 128.447C341.929 126.226 339.387 120.082 341.608 114.726L359.159 122.003ZM348.052 126.599C352.388 128.397 357.361 126.339 359.159 122.003L341.608 114.726C343.829 109.369 349.972 106.827 355.329 109.048L348.052 126.599ZM369.357 135.433L348.052 126.599L355.329 109.048L376.634 117.882L369.357 135.433ZM394.688 144.248L369.878 135.631L376.112 117.683L400.922 126.3L394.688 144.248ZM419.224 135.78L402.71 143.779L394.427 126.68L410.941 118.68L419.224 135.78ZM407.868 131.836C409.915 136.06 414.999 137.826 419.224 135.78L410.941 118.68C416.16 116.152 422.44 118.334 424.968 123.552L407.868 131.836ZM411.812 120.48C407.588 122.527 405.822 127.611 407.868 131.836L424.968 123.552C427.496 128.771 425.315 135.052 420.096 137.58L411.812 120.48ZM394.553 128.841L411.812 120.48L420.096 137.58L402.837 145.94L394.553 128.841ZM401.048 128.461C398.918 127.721 396.582 127.858 394.553 128.841L402.837 145.94C400.33 147.154 397.444 147.323 394.814 146.409L401.048 128.461ZM377.184 120.173L401.048 128.461L394.814 146.409L370.95 138.121L377.184 120.173ZM342.75 175.41L364.098 125.932L381.544 133.459L360.195 182.937L342.75 175.41ZM353.922 170.973C349.611 169.113 344.61 171.1 342.75 175.41L360.195 182.938C357.898 188.262 351.719 190.716 346.395 188.419L353.922 170.973ZM358.359 182.145C360.219 177.835 358.232 172.833 353.922 170.973L346.395 188.419C341.07 186.121 338.616 179.942 340.913 174.618L358.359 182.145ZM379.64 132.822L358.359 182.145L340.913 174.618L362.195 125.295L379.64 132.822ZM354.563 110.896L374.021 118.963L366.744 136.514L347.286 128.447L354.563 110.896ZM362.195 125.295C360.316 129.649 362.363 134.698 366.744 136.514L374.021 118.963C379.432 121.207 381.961 127.444 379.64 132.822L362.195 125.295ZM151.183 193.036C153.072 187.626 158.99 184.686 164.485 186.566L158.335 204.543C162.797 206.069 167.59 203.68 169.12 199.302L151.183 193.036ZM285.946 350.676C281.084 346.757 280.86 339.757 284.803 335.447L298.821 348.272C302.002 344.795 301.854 339.095 297.87 335.884L285.946 350.676ZM180.139 136.525C184.988 139.085 190.977 136.731 192.786 131.554L174.849 125.289C176.873 119.493 183.58 116.857 189.009 119.723L180.139 136.525ZM370.95 138.121C375.158 139.582 379.779 137.548 381.544 133.459L364.098 125.932C366.278 120.88 371.987 118.367 377.184 120.173L370.95 138.121ZM307.38 256.97C305.315 262.109 308.586 267.317 313.357 268.391L317.53 249.854C323.543 251.208 327.55 257.733 325.01 264.054L307.38 256.97ZM293.999 301.239C290.552 304.951 284.722 305.819 280.276 302.718L291.147 287.135C287.533 284.614 282.834 285.341 280.077 288.31L293.999 301.239ZM304.426 275.002C301.636 275.5 299.173 277.397 298.049 280.193L315.679 287.277C314.295 290.723 311.248 293.084 307.768 293.706L304.426 275.002ZM324.902 286.923C323.598 290.488 320.385 293.005 316.611 293.415L314.557 274.526C311.143 274.897 308.236 277.174 307.057 280.399L324.902 286.923ZM321.675 250.093C328.693 249.056 336.278 255.804 333.217 264.178L315.372 257.654C314.158 260.974 315.22 264.174 316.945 266.139C318.624 268.053 321.368 269.345 324.453 268.889L321.675 250.093ZM430.956 306.755C425.117 307.39 419.892 303.11 419.364 297.26L438.288 295.553C437.86 290.817 433.631 287.352 428.903 287.866L430.956 306.755ZM440.279 295.374C440.793 301.074 436.647 306.137 430.956 306.755L428.903 287.866C424.296 288.367 420.94 292.465 421.356 297.08L440.279 295.374ZM328.328 261.159C330.76 255.108 326.484 248.469 319.97 248.179L319.124 267.16C312.557 266.868 308.247 260.175 310.698 254.076L328.328 261.159ZM345.067 190.658C349.533 194.055 356.008 192.269 358.1 187.061L340.47 179.978C343.054 173.546 351.052 171.339 356.57 175.535L345.067 190.658ZM297.345 346.922C293.403 351.232 286.41 351.63 282.075 347.135L295.75 333.944C292.198 330.262 286.508 330.62 283.327 334.097L297.345 346.922ZM500.127 290.133C492.464 290.926 489.725 300.689 495.857 305.353L507.359 290.23C514.934 295.992 511.551 308.051 502.084 309.032L500.127 290.133ZM280.625 337.051C277.476 340.492 277.781 345.596 280.799 348.692L294.404 335.429C298.178 339.3 298.522 345.636 294.643 349.876L280.625 337.051ZM311.008 293.343C303.707 293.686 297.731 286.348 300.722 278.904L318.353 285.988C320.785 279.933 315.922 274.091 310.117 274.363L311.008 293.343ZM193.942 128.244C195.33 124.272 193.602 119.887 189.888 117.925L181.014 134.726C176.425 132.302 174.291 126.884 176.005 121.978L193.942 128.244ZM355.747 313.604C355.288 309.141 351.289 305.547 346.434 306.049L348.392 324.948C342.415 325.567 337.422 321.136 336.847 315.55L355.747 313.604ZM178.829 171.508C180.422 166.948 177.902 162.041 173.376 160.608L167.64 178.721C162.033 176.946 158.925 170.873 160.892 165.243L178.829 171.508ZM161.064 183.36C156.756 182.054 152.101 184.343 150.582 188.69L168.519 194.956C166.645 200.322 160.891 203.162 155.55 201.543L161.064 183.36ZM166.918 180.59C171.339 181.986 176.006 179.589 177.509 175.287L159.572 169.021C161.429 163.703 167.191 160.752 172.638 162.472L166.918 180.59ZM417.425 275.759C417.852 280.495 422.082 283.96 426.81 283.446L424.756 264.557C430.596 263.922 435.821 268.202 436.349 274.053L417.425 275.759ZM195.457 60.2295C193.063 67.0837 199.278 73.6248 206.111 71.9349L201.549 53.4906C209.153 51.61 216.05 58.8915 213.394 66.4954L195.457 60.2295ZM316.392 274.514C315.788 274.457 315.173 274.459 314.557 274.526L316.611 293.415C315.93 293.489 315.25 293.492 314.582 293.428L316.392 274.514ZM286.319 334.515C284.067 334.615 281.947 335.606 280.425 337.269L294.444 350.094C292.564 352.149 289.945 353.372 287.163 353.496L286.319 334.515ZM149.262 192.469C147.685 196.983 150.146 202.001 154.838 203.417L160.328 185.228C166.103 186.971 169.149 193.154 167.199 198.735L149.262 192.469ZM327.57 285.448C329.734 279.53 324.932 273.398 318.668 274.079L320.722 292.968C312.984 293.809 307.053 286.234 309.725 278.924L327.57 285.448ZM284.508 352.085C287.859 354.817 292.97 354.667 296.119 351.226L282.1 338.401C285.979 334.161 292.321 333.941 296.511 337.357L284.508 352.085ZM170.439 195.525C172.017 191.008 169.565 186.191 165.177 184.688L159.021 202.663C153.577 200.798 150.556 194.83 152.502 189.259L170.439 195.525ZM400.922 126.3C398.792 125.56 396.456 125.697 394.427 126.68L402.71 143.779C400.204 144.993 397.318 145.162 394.688 144.248L400.922 126.3ZM309.619 256.762C311.356 252.438 315.588 249.988 319.859 250.176L319.024 269.158C322.421 269.307 325.838 267.358 327.249 263.845L309.619 256.762ZM322.66 295.633C317.383 293.165 316.216 287.878 316.633 284.57C317.053 281.229 319.68 275.981 325.957 275.298L328.011 294.187C333.205 293.622 335.189 289.286 335.484 286.942C335.775 284.631 335 280.429 330.709 278.422L322.66 295.633ZM276.862 292.196C274.14 295.9 274.812 301.334 278.839 304.154L289.736 288.589C294.706 292.068 295.575 298.817 292.172 303.448L276.862 292.196ZM348.366 326.961C352.834 326.499 355.933 322.753 355.978 318.628L336.979 318.421C337.035 313.26 340.909 308.632 346.409 308.063L348.366 326.961ZM318.407 247.994C314.198 247.197 310.339 249.605 308.901 253.185L326.531 260.269C324.746 264.71 319.995 267.632 314.874 266.663L318.407 247.994Z" fill="#4ABEEA"/>
<g clip-path="url(#clip0_2_60)">
<path d="M752.386 399.899C732.205 380.792 705.062 368.975 675.132 368.974C644.939 368.974 617.597 380.913 597.399 400.196L674.727 477.53L752.386 399.899Z" fill="#4EBE4B"/>
<path d="M675.337 202.875C650.999 202.874 628.513 194.87 610.32 181.436L674.754 117L739.753 182.003C721.652 195.106 699.42 202.875 675.337 202.875Z" fill="#FFF200"/>
<path d="M667.467 229.609C668.602 236.627 663.854 243.166 656.882 244.265C649.911 245.378 643.356 240.623 642.258 233.693C641.123 226.7 645.87 220.141 652.842 219.045C659.805 217.903 666.368 222.662 667.467 229.609Z" fill="#4ABEEA"/>
<path d="M667.468 283.444C668.621 290.423 663.855 296.983 656.884 298.071C649.912 299.228 643.376 294.461 642.259 287.514C641.124 280.517 645.872 273.957 652.825 272.858C659.806 271.72 666.37 276.472 667.468 283.444Z" fill="#4ABEEA"/>
<path d="M709.028 329.009C710.127 335.968 705.415 342.527 698.407 343.655C691.426 344.743 684.899 340.02 683.782 333.058C682.648 326.065 687.395 319.53 694.367 318.414C701.339 317.272 707.875 322.034 709.028 329.009Z" fill="#4ABEEA"/>
<path d="M721.79 257.895C722.907 264.831 718.177 271.392 711.187 272.519C704.225 273.657 697.679 268.902 696.544 261.923C695.409 254.954 700.184 248.394 707.129 247.277C714.119 246.153 720.655 250.912 721.79 257.895Z" fill="#4ABEEA"/>
<path d="M790.966 361.573L767.608 338.232L791.791 314.047L743.405 314.046L726.657 297.279L742.933 280.992L792.235 280.993L767.588 256.31L790.972 232.967L855 296.998L790.966 361.573Z" fill="#4ABEEA"/>
</g>
<path d="M517.625 263.323C520.61 258.154 527.326 256.309 531.731 260.336C538.481 266.506 543.457 274.465 546.015 283.39C549.573 295.807 548.17 309.12 542.102 320.523C536.034 331.926 525.775 340.527 513.488 344.512C504.657 347.376 495.276 347.695 486.388 345.543C480.587 344.139 478.365 337.538 480.985 332.175C483.606 326.812 490.148 324.831 496.102 325.257C499.692 325.514 503.332 325.084 506.82 323.953C513.777 321.696 519.586 316.826 523.022 310.37C526.458 303.913 527.252 296.374 525.237 289.343C524.227 285.819 522.551 282.56 520.332 279.725C516.653 275.025 514.641 268.492 517.625 263.323Z" fill="#4ABEEA"/>
<path d="M545.891 235.895C549.638 231.099 556.621 230.204 560.918 234.515C567.208 240.825 572.529 248.058 576.69 255.983C582.563 267.169 585.988 279.477 586.737 292.088C587.486 304.7 585.543 317.327 581.036 329.129C576.529 340.932 569.562 351.64 560.597 360.542C551.632 369.445 540.876 376.337 529.042 380.762C517.208 385.186 504.568 387.042 491.962 386.204C479.356 385.367 467.072 381.856 455.928 375.906C448.032 371.69 440.836 366.318 434.57 359.984C430.29 355.658 431.233 348.681 436.055 344.967C440.877 341.254 447.743 342.234 452.196 346.383C456.432 350.33 461.174 353.722 466.309 356.464C474.695 360.941 483.937 363.583 493.423 364.213C502.908 364.843 512.419 363.447 521.323 360.117C530.228 356.788 538.321 351.602 545.067 344.903C551.812 338.205 557.055 330.148 560.446 321.267C563.837 312.386 565.299 302.885 564.736 293.395C564.172 283.906 561.595 274.645 557.176 266.228C554.47 261.074 551.112 256.309 547.194 252.045C543.077 247.563 542.144 240.691 545.891 235.895Z" fill="#4ABEEA"/>
<path d="M580.854 214.504L573.065 222.295C593.809 243.04 604.131 270.105 604.141 297.272C604.133 324.454 593.794 351.539 573.069 372.28C552.336 393.007 525.257 403.332 498.077 403.343C470.916 403.331 443.846 393.015 423.102 372.276C402.367 351.542 392.054 324.484 392.035 297.32C392.053 270.135 402.383 243.05 423.116 222.301C443.85 201.574 470.929 191.245 498.108 191.235C525.269 191.246 552.331 201.56 573.065 222.295L580.854 214.504L588.643 206.716C563.669 181.719 530.834 169.189 498.108 169.199C465.364 169.187 432.52 181.737 407.538 206.722C382.538 231.711 369.993 264.567 370.003 297.319C369.995 330.047 382.523 362.882 407.525 387.857C432.508 412.856 465.352 425.388 498.078 425.379C530.822 425.39 563.666 412.845 588.647 387.862C613.638 362.873 626.183 330.026 626.173 297.272C626.19 264.542 613.653 231.7 588.643 206.713L589.051 207.121L588.643 206.716L580.854 214.504Z" fill="#4ABEEA"/>
<path d="M510.995 295.463C512.131 302.511 507.362 309.075 500.353 310.183C493.352 311.31 486.775 306.522 485.655 299.568C484.518 292.546 489.304 285.956 496.296 284.857C503.297 283.717 509.875 288.486 510.995 295.463Z" fill="#4ABEEA"/>
<defs>
<clipPath id="clip0_2_60">
<rect width="360.53" height="360.53" fill="white" transform="translate(494.471 117)"/>
</clipPath>
</defs>
</svg>
